<?xml version="1.0" standalone="no"?>
<!DOCTYPE svg PUBLIC "-//W3C//DTD SVG 20010904//EN"
 "http://www.w3.org/TR/2001/REC-SVG-20010904/DTD/svg10.dtd">
<svg version="1.0" xmlns="http://www.w3.org/2000/svg"
 width="466.000000pt" height="466.000000pt" viewBox="0 0 466.000000 466.000000"
 preserveAspectRatio="xMidYMid meet">
<metadata>
Created by potrace 1.14, written by Peter Selinger 2001-2017
</metadata>
<g transform="translate(0.000000,466.000000) scale(0.100000,-0.100000)"
fill="#000000" stroke="none">
<path d="M2426 3718 c-2 -7 -10 -33 -17 -58 -7 -25 -12 -49 -10 -54 1 -4 -4
-14 -10 -22 -6 -8 -8 -14 -4 -14 4 0 2 -7 -5 -15 -7 -8 -9 -15 -5 -15 4 0 2
-6 -4 -13 -6 -8 -8 -17 -4 -20 3 -4 1 -13 -5 -20 -7 -7 -13 -22 -15 -33 -1
-10 -6 -24 -10 -31 -4 -6 -3 -14 3 -18 6 -4 8 -10 5 -15 -6 -10 20 -21 29 -12
10 9 116 8 116 -1 0 -4 8 -3 19 2 10 6 21 8 24 5 10 -10 1 50 -12 81 -7 17
-14 39 -16 50 -6 34 -12 58 -34 124 -12 35 -21 70 -21 78 0 17 -19 17 -24 1z"/>
<path d="M1584 3450 c4 -14 8 -32 10 -40 3 -8 13 -35 24 -60 11 -25 32 -85 47
-133 15 -48 32 -87 36 -87 5 0 5 -8 2 -17 -6 -14 -2 -13 23 4 16 12 39 30 50
42 12 11 25 17 28 14 3 -4 6 -2 6 3 0 5 14 18 30 27 37 22 38 36 3 62 -65 49
-211 164 -247 194 -18 15 -19 15 -12 -9z"/>
<path d="M3280 3459 c0 -5 -4 -7 -10 -4 -5 3 -10 2 -10 -4 0 -5 -24 -28 -52
-50 -29 -22 -63 -50 -75 -61 -12 -11 -27 -20 -32 -20 -5 0 -11 -4 -13 -8 -1
-4 -24 -23 -50 -41 l-48 -34 52 -39 c28 -21 55 -38 59 -38 4 0 21 -14 37 -30
l31 -30 20 55 c12 31 21 60 21 66 0 5 4 17 9 27 5 9 19 46 32 82 12 36 25 70
29 75 14 19 21 65 10 65 -5 0 -10 -5 -10 -11z"/>
<path d="M2420 3304 c0 -6 -23 -11 -51 -13 -29 -1 -72 -6 -98 -11 -25 -4 -49
-6 -53 -4 -5 3 -8 0 -8 -7 0 -7 -3 -10 -6 -7 -13 14 -272 -92 -282 -114 -2 -5
-9 -8 -16 -8 -7 0 -21 -9 -31 -20 -10 -11 -22 -20 -26 -20 -4 0 -19 -10 -34
-22 -195 -163 -332 -385 -361 -588 -3 -19 -9 -49 -14 -67 -15 -57 0 -359 18
-373 4 -3 8 -14 9 -25 2 -28 7 -48 15 -61 4 -6 9 -22 12 -36 5 -32 61 -144 92
-185 13 -17 24 -35 24 -40 1 -21 188 -213 208 -213 7 0 10 -4 7 -10 -3 -5 1
-10 9 -10 9 0 16 -4 16 -10 0 -5 6 -10 14 -10 7 0 19 -6 25 -14 12 -14 149
-83 206 -104 25 -9 90 -28 130 -38 59 -14 148 -21 239 -18 106 3 131 6 186 19
14 3 34 8 45 9 54 9 203 72 258 109 15 10 27 16 27 13 0 -3 15 8 32 25 18 16
36 29 40 29 5 0 22 14 40 30 17 17 35 30 39 30 5 0 9 4 9 9 0 5 15 24 33 43
46 48 77 87 77 97 0 4 9 16 20 26 11 10 20 24 20 32 0 7 4 13 8 13 10 0 68
114 87 170 1 3 4 12 7 20 55 145 67 347 33 550 -1 8 -5 22 -8 30 -2 8 -15 44
-27 80 -29 87 -103 236 -130 260 -3 3 -17 21 -31 40 -37 49 -75 88 -139 140
-30 25 -56 48 -58 53 -2 4 -9 7 -16 7 -7 0 -21 9 -30 19 -10 11 -32 25 -49 32
-18 7 -43 20 -57 28 -71 46 -284 102 -395 105 -27 0 -53 5 -57 11 -5 7 -8 6
-8 -1z m-420 -804 c16 4 31 6 33 4 3 -3 39 -6 80 -8 44 -1 82 -8 91 -15 9 -8
16 -10 16 -6 0 22 50 -54 51 -77 2 -35 2 -73 0 -97 -1 -17 -54 -80 -69 -82 -4
0 -16 -2 -27 -4 -11 -3 -39 -6 -63 -7 -48 -3 -50 -7 -54 -93 l-3 -50 -55 0
-55 0 -1 60 c-1 33 -3 65 -4 70 -1 6 -2 15 -1 20 1 6 2 71 3 145 0 91 4 137
11 142 7 4 13 3 15 -1 2 -5 16 -6 32 -1z m865 -4 c11 -2 26 -5 33 -5 17 -1 15
-24 -5 -66 -16 -33 -20 -35 -48 -29 -54 12 -75 12 -82 1 -11 -18 -12 -38 -2
-31 5 3 9 0 9 -5 0 -6 6 -11 13 -11 31 0 117 -51 131 -77 13 -25 22 -86 16
-105 -4 -13 -7 -27 -9 -36 -2 -15 -38 -52 -50 -52 -6 0 -11 -4 -11 -8 0 -9
-15 -12 -102 -15 -38 -1 -68 1 -68 5 0 5 -8 8 -17 8 -10 0 -28 8 -40 18 l-21
17 20 43 c22 45 33 50 64 27 48 -36 133 -3 97 38 -9 9 -24 17 -35 17 -10 0
-18 4 -18 8 0 4 -10 8 -22 9 -12 1 -37 18 -56 36 -30 30 -34 41 -34 82 1 26 7
53 13 61 6 8 8 14 4 14 -16 0 44 48 72 58 27 9 104 8 148 -2z m-283 -4 c8 -2
6 -92 -2 -93 -3 0 -21 -1 -40 -2 -19 -1 -37 -5 -40 -9 -3 -4 -5 -77 -5 -162 1
-139 -1 -155 -17 -159 -19 -5 -88 0 -95 6 -7 8 -7 282 0 294 10 16 -20 36 -45
30 -32 -8 -46 3 -48 38 -5 65 -13 62 143 60 78 -1 145 -3 149 -3z"/>
<path d="M2071 2391 c-6 -10 -9 -31 -9 -48 1 -27 5 -32 30 -35 23 -4 33 1 45
18 20 31 10 57 -27 71 -26 10 -32 9 -39 -6z"/>
<path d="M1063 2723 c0 -7 5 -13 11 -13 12 0 129 -80 134 -92 2 -4 8 -8 13 -8
11 0 100 -61 114 -77 5 -7 15 -9 20 -5 10 7 32 63 40 99 2 10 11 35 19 56 9
20 13 37 9 38 -71 8 -109 10 -224 12 -104 2 -136 -1 -136 -10z"/>
<path d="M3575 2732 c-60 -1 -113 -6 -118 -11 -4 -4 -3 -21 4 -37 6 -16 15
-38 19 -49 13 -31 23 -79 21 -92 -4 -24 30 -13 92 29 34 23 64 45 65 50 2 4 8
6 13 2 5 -3 12 2 15 10 3 9 12 16 18 16 7 0 21 8 32 19 11 10 31 22 43 26 13
4 20 12 17 20 -3 10 0 12 12 8 10 -4 14 -2 9 3 -9 9 -62 11 -242 6z"/>
<path d="M1305 2010 c-22 -16 -88 -62 -147 -102 -105 -70 -127 -90 -90 -82 9
2 94 5 187 7 94 2 170 8 170 13 0 5 -11 41 -25 79 -13 39 -25 75 -25 80 -1 6
-3 16 -3 23 -3 19 -23 13 -67 -18z"/>
<path d="M3506 2028 c-34 -116 -51 -165 -59 -175 -5 -7 -8 -14 -6 -14 2 -1 60
-3 129 -5 69 -2 155 -5 193 -7 37 -1 67 1 67 5 0 4 -4 8 -9 8 -5 0 -16 6 -23
13 -7 6 -57 41 -111 77 -53 35 -97 68 -97 73 0 4 -4 6 -9 3 -4 -3 -16 3 -26
14 -20 23 -44 26 -49 8z"/>
<path d="M1707 1437 c-9 -6 -18 -21 -20 -32 -1 -11 -5 -24 -8 -30 -7 -10 -31
-82 -35 -100 -1 -5 -6 -21 -12 -35 -5 -14 -11 -29 -12 -35 -1 -5 -6 -15 -11
-21 -5 -7 -11 -20 -14 -30 -2 -11 -7 -28 -11 -38 -7 -19 -6 -19 22 1 16 11 41
32 56 46 15 14 29 22 32 19 3 -3 6 0 6 6 0 7 5 12 10 12 6 0 22 12 35 26 14
15 25 24 25 21 0 -3 15 7 32 24 18 16 41 32 50 35 21 6 23 19 6 33 -54 45 -77
61 -84 61 -5 0 -18 11 -30 25 -17 20 -24 22 -37 12z"/>
<path d="M3111 1410 c-28 -22 -51 -38 -51 -35 0 4 -7 -1 -16 -9 -8 -9 -21 -16
-28 -16 -27 0 -10 -33 33 -66 25 -18 51 -37 56 -42 6 -4 25 -19 44 -32 41 -29
74 -56 110 -89 22 -20 26 -21 29 -7 2 10 -1 22 -6 29 -5 7 -15 33 -23 60 -7
26 -17 47 -21 47 -4 0 -8 6 -8 14 0 8 -12 47 -26 88 -14 40 -26 79 -26 86 -2
19 -13 15 -67 -28z"/>
<path d="M2336 1175 c-3 -9 -2 -25 4 -34 5 -10 6 -21 3 -25 -3 -3 -1 -6 5 -6
6 0 9 -7 6 -15 -4 -8 -1 -15 5 -15 6 0 10 -3 9 -7 -3 -8 18 -91 33 -133 5 -14
10 -36 13 -50 2 -14 9 -36 14 -50 l9 -25 9 25 c4 14 8 27 9 30 10 49 18 70 27
70 7 0 6 5 -1 14 -8 10 -9 16 -1 21 5 3 10 15 10 26 0 10 4 19 8 19 4 0 8 8 9
18 2 31 21 92 32 106 26 31 -49 54 -105 32 -7 -3 -15 -2 -19 2 -11 11 -55 9
-55 -2 0 -6 -4 -5 -9 2 -7 11 -9 10 -15 -3z"/>
</g>
</svg>
